<svg xmlns="http://www.w3.org/2000/svg" width="80" height="105">
    <defs>
        <filter id="a" x="12.156" y="48.281" width="27.844" height="12.719" filterUnits="userSpaceOnUse">
            <feOffset result="offset" dx="1.439" dy="1.389" in="SourceAlpha"/>
            <feGaussianBlur result="blur"/>
            <feFlood result="flood" flood-color="#fff" flood-opacity=".4"/>
            <feComposite result="composite" operator="in" in2="blur"/>
            <feBlend result="blend" in="SourceGraphic"/>
        </filter>
    </defs>
    <path d="M40.234 0s-2.468 8.474-11.228 17.392S.468 41.97.468 63.281 16.133 105 40.234 105 80 82.585 80 62.344 59.037 25.071 51.462 17.392C40.5 6.281 40.234 0 40.234 0z" fill-rule="evenodd" fill="#009cde"/>
    <path data-name="Rectangle 1 copy" d="M12.164 48.281h26.813v10.972H12.164V48.281z" filter="url(#a)" fill="#fff" fill-rule="evenodd"/>
    <path data-name="IXM" d="M17.042 56.33h.432v-5.625h-.432v5.625zm8.4 0l-2.28-2.909 2.119-2.716h-.488L22.9 53.124l-1.89-2.419h-.505l2.119 2.724-2.28 2.9h.508l2.034-2.6 2.042 2.6h.509zm8.92 0l-.008-5.625h-.361l-2.653 4.347-2.653-4.347h-.363v5.625h.424v-4.8l2.483 4.05h.212l2.483-4.066.008 4.813h.424z" fill="#0078a8" fill-rule="evenodd"/>
    <path data-name="SWAT" d="M17.492 76.406c3.526 0 5.254-1.671 5.254-3.632 0-4.146-6.729-2.861-6.729-4.58 0-.562.508-1.012 1.915-1.012a7.306 7.306 0 013.288.868l1.034-2.362a9.278 9.278 0 00-4.305-.98c-3.525 0-5.254 1.639-5.254 3.648 0 4.178 6.746 2.877 6.746 4.66 0 .546-.542.916-1.932.916a7.779 7.779 0 01-3.915-1.109l-1.1 2.346a9.737 9.737 0 004.998 1.237zm23.356-11.475l-2.492 7.248-2.39-7.248h-3.084l-2.508 7.184-2.39-7.184h-3.458l3.848 11.249h3.593l2.373-6.846 2.271 6.846H40.2l3.847-11.249h-3.2zm13.92 11.249h3.492l-5.255-11.249H49.7l-5.237 11.25h3.424L48.819 74h5.017zM49.8 71.649l1.525-3.6 1.526 3.6H49.8zm11.99 4.532h3.356v-8.727h3.627v-2.523H58.145v2.523h3.645v8.726z" fill="#fff" fill-rule="evenodd"/>
</svg>